<svg width="1526" height="920" viewBox="0 0 1526 920" fill="none" xmlns="http://www.w3.org/2000/svg">
<g clip-path="url(#clip0_476_1538)">
<path d="M1086.14 87.7317C1271.53 -59.0797 1518.31 38.4001 1674.68 64.2056C1864.31 75.9121 1777.79 130.43 1958.91 426.084C2140.03 721.739 1713.36 695.399 1532.03 679.074C1350.7 662.749 1002 1036.86 784.912 845.025C567.829 653.187 502.001 899.961 212.5 785.745C-19.1006 694.371 36.6904 431.129 93.5359 310.929C134.632 218.642 262.337 36.8761 444.383 48.1144C671.94 62.1622 854.396 271.246 1086.14 87.7317Z" fill="#15A6DF"/>
<path d="M926.016 101.429C1111.41 -45.3824 1358.19 52.0974 1514.56 77.9028C1704.19 89.6093 1617.67 144.127 1798.79 439.782C1979.91 735.436 1553.24 709.096 1371.91 692.772C1190.58 676.447 841.876 1050.56 624.793 858.722C407.71 666.884 341.881 913.658 52.3808 799.442C-179.22 708.069 -123.429 444.826 -66.5832 324.627C-25.4869 232.339 102.217 50.5734 284.264 61.8116C511.821 75.8594 694.277 284.943 926.016 101.429Z" fill="#00529C"/>
</g>
<defs>
<clipPath id="clip0_476_1538">
<rect width="1526" height="920" fill="white"/>
</clipPath>
</defs>
</svg>
