<svg width="25" height="25" viewBox="0 0 25 25" fill="none" xmlns="http://www.w3.org/2000/svg">
<g clip-path="url(#clip0_199_3413)">
<path d="M3.81958 19.9758C3.98379 21.6381 5.29087 22.9803 6.94695 23.1982C8.86661 23.4508 10.851 23.702 12.8817 23.702C14.9125 23.702 16.8968 23.4508 18.8165 23.1982C20.4725 22.9803 21.7797 21.6381 21.9438 19.9758C22.1701 17.6864 22.4031 15.3136 22.4031 12.8822C22.4031 11.4526 22.3226 10.0433 22.2103 8.65929C21.9398 5.32954 19.2791 2.54743 15.9538 2.22575C14.9435 2.12801 13.9187 2.0625 12.8817 2.0625C10.851 2.0625 8.86661 2.31376 6.94695 2.56628C5.29087 2.78415 3.98379 4.12637 3.81956 5.78863C3.59337 8.07812 3.36035 10.4508 3.36035 12.8822C3.36035 15.3136 3.59337 17.6864 3.81958 19.9758Z" fill="#DDEFFC" stroke="#00529C" stroke-width="1.73116"/>
<path d="M14.6928 5.52482V9.30607H18.9413C20.8308 9.30607 22.3669 10.8197 22.4029 12.7006C22.3965 11.3333 22.3181 9.98468 22.2104 8.65929C21.9402 5.32954 19.2792 2.54743 15.9541 2.22575C14.9438 2.12801 13.9189 2.0625 12.882 2.0625C12.4771 2.0625 12.074 2.07249 11.6729 2.09049C13.3761 2.30772 14.6928 3.7625 14.6928 5.52482Z" fill="#D7E0FF" stroke="#00529C" stroke-width="1.73116" stroke-linejoin="round"/>
</g>
<defs>
<clipPath id="clip0_199_3413">
<rect width="24.2362" height="24.2362" fill="white" transform="translate(0.763672 0.763672)"/>
</clipPath>
</defs>
</svg>
