<svg width="25" height="25" viewBox="0 0 25 25" fill="none" xmlns="http://www.w3.org/2000/svg">
<g clip-path="url(#clip0_199_3424)">
<path d="M15.3976 8.40022C15.5002 9.35946 16.2717 10.131 17.2305 10.2378C17.9426 10.3172 18.6739 10.3854 19.4193 10.3854C20.1647 10.3854 20.896 10.3172 21.608 10.2378C22.5669 10.131 23.3383 9.35946 23.4409 8.40022C23.5168 7.69211 23.5807 6.96511 23.5807 6.22395C23.5807 5.48277 23.5168 4.75577 23.4409 4.04765C23.3383 3.08842 22.5669 2.31692 21.608 2.21005C20.896 2.13068 20.1647 2.0625 19.4193 2.0625C18.6739 2.0625 17.9426 2.13068 17.2305 2.21005C16.2717 2.31692 15.5002 3.08842 15.3976 4.04765C15.3218 4.75577 15.2578 5.48277 15.2578 6.22395C15.2578 6.96511 15.3218 7.69211 15.3976 8.40022Z" fill="#DDEFFC" stroke="#00529C" stroke-width="1.73116"/>
<path d="M2.32235 8.40022C2.42498 9.35946 3.19648 10.131 4.15525 10.2378C4.86738 10.3172 5.59857 10.3854 6.34406 10.3854C7.08955 10.3854 7.82074 10.3172 8.53287 10.2378C9.49164 10.131 10.2631 9.35946 10.3658 8.40022C10.4415 7.69211 10.5055 6.96511 10.5055 6.22395C10.5055 5.48277 10.4415 4.75577 10.3658 4.04765C10.2631 3.08842 9.49164 2.31692 8.53287 2.21005C7.82074 2.13068 7.08955 2.0625 6.34406 2.0625C5.59857 2.0625 4.86738 2.13068 4.15525 2.21005C3.19648 2.31692 2.42498 3.08842 2.32235 4.04765C2.24659 4.75577 2.18262 5.48277 2.18262 6.22395C2.18262 6.96511 2.24659 7.69211 2.32235 8.40022Z" fill="#DDEFFC" stroke="#00529C" stroke-width="1.73116"/>
<path d="M2.32235 21.7166C2.42498 22.6759 3.19648 23.4473 4.15525 23.5543C4.86738 23.6336 5.59857 23.7018 6.34406 23.7018C7.08955 23.7018 7.82074 23.6336 8.53287 23.5543C9.49164 23.4473 10.2631 22.6759 10.3658 21.7166C10.4415 21.0086 10.5055 20.2815 10.5055 19.5404C10.5055 18.7991 10.4415 18.0722 10.3658 17.3641C10.2631 16.4048 9.49164 15.6333 8.53287 15.5265C7.82074 15.4471 7.08955 15.3789 6.34406 15.3789C5.59857 15.3789 4.86738 15.4471 4.15525 15.5265C3.19648 15.6333 2.42498 16.4048 2.32235 17.3641C2.24659 18.0722 2.18262 18.7991 2.18262 19.5404C2.18262 20.2815 2.24659 21.0086 2.32235 21.7166Z" fill="#DDEFFC" stroke="#00529C" stroke-width="1.73116"/>
<path d="M15.3976 21.7166C15.5002 22.6759 16.2717 23.4473 17.2305 23.5543C17.9426 23.6336 18.6739 23.7018 19.4193 23.7018C20.1647 23.7018 20.896 23.6336 21.608 23.5543C22.5669 23.4473 23.3383 22.6759 23.4409 21.7166C23.5168 21.0086 23.5807 20.2815 23.5807 19.5404C23.5807 18.7991 23.5168 18.0722 23.4409 17.3641C23.3383 16.4048 22.5669 15.6333 21.608 15.5265C20.896 15.4471 20.1647 15.3789 19.4193 15.3789C18.6739 15.3789 17.9426 15.4471 17.2305 15.5265C16.2717 15.6333 15.5002 16.4048 15.3976 17.3641C15.3218 18.0722 15.2578 18.7991 15.2578 19.5404C15.2578 20.2815 15.3218 21.0086 15.3976 21.7166Z" fill="#DDEFFC" stroke="#00529C" stroke-width="1.73116"/>
</g>
<defs>
<clipPath id="clip0_199_3424">
<rect width="24.2362" height="24.2362" fill="white" transform="translate(0.763672 0.763672)"/>
</clipPath>
</defs>
</svg>
