<svg width="133" height="69" viewBox="0 0 133 69" fill="none" xmlns="http://www.w3.org/2000/svg">
<path fill-rule="evenodd" clip-rule="evenodd" d="M3.14139 21.0906C8.59621 20.5182 11.4197 20.4911 14.931 20.9855C20.636 21.8138 26.2874 23.8475 30.5674 26.6447C33.2544 28.3474 33.9946 25.47 31.5246 23C30.344 21.8194 25.3222 19.1561 22.5557 18.2496L20.5216 17.5896L21.8965 17.3731C26.83 16.6053 37.5836 16.7234 42.8762 17.6313C45.8663 18.1543 52.5025 20.0224 58.9214 22.1653C69.7282 25.7369 83.9394 32.9302 95.4041 40.56C108.465 49.2874 118.123 56.6443 128.274 65.5876L131.486 68.4161L132.279 67.6236C132.937 66.9653 132.962 66.6072 132.527 65.7308C131.73 64.1091 119.409 51.8455 115.484 48.7447C104.373 39.9352 93.0426 32.1648 85.5003 28.1315C77.8716 24.1204 70.4383 20.5795 65.8838 18.7671C60.098 16.4902 48.7411 12.8095 45.0378 12.008C38.9519 10.6902 31.7124 10.4111 21.8097 11.0929L20.0255 11.2261L24.4973 8.29646C26.9361 6.67667 29.7043 4.95155 30.6089 4.43086C32.6898 3.22656 32.8844 2.32179 31.32 0.974689C29.9188 -0.202848 28.0292 0.15099 25.1237 2.1798C21.531 4.67187 9.55075 12.32 5.19069 14.9204C2.2595 16.6998 1.08005 17.5528 0.942879 18.1251C0.505628 19.5542 1.74091 21.2241 3.14139 21.0906Z" fill="#15A6DF"/>
</svg>
