<svg width="1440" height="694" viewBox="0 0 1440 694" fill="none" xmlns="http://www.w3.org/2000/svg">
<g style="mix-blend-mode:plus-darker">
<mask id="mask0_199_2960" style="mask-type:alpha" maskUnits="userSpaceOnUse" x="0" y="0" width="1440" height="694">
<path d="M0 0H1440V694H0V0Z" fill="url(#paint0_radial_199_2960)"/>
</mask>
<g mask="url(#mask0_199_2960)">
<g opacity="0.4">
<path opacity="0.5" d="M1440 215.609L6.56843e-05 215.609" stroke="#292D32"/>
<path opacity="0.5" d="M1431.87 350.349L9.29047 350.349" stroke="#292D32"/>
<path opacity="0.5" d="M1431.87 485.089L9.29047 485.089" stroke="#292D32"/>
<path opacity="0.5" d="M1431.87 619.828L9.29047 619.829" stroke="#292D32"/>
<path opacity="0.5" d="M180 80L180 898" stroke="#292D32"/>
<path opacity="0.5" d="M360 80.8691L360 898" stroke="#292D32"/>
<path opacity="0.5" d="M540 80.8691L540 898" stroke="#292D32"/>
<path opacity="0.5" d="M720 80L720 898" stroke="#292D32"/>
<path opacity="0.5" d="M900 80L900 898" stroke="#292D32"/>
<path opacity="0.5" d="M1080 80.8691L1080 898" stroke="#292D32"/>
<path opacity="0.5" d="M1260 80.8691L1260 898" stroke="#292D32"/>
</g>
</g>
</g>
<defs>
<radialGradient id="paint0_radial_199_2960" cx="0" cy="0" r="1" gradientUnits="userSpaceOnUse" gradientTransform="translate(720 347) rotate(90) scale(384 586.121)">
<stop stop-color="white"/>
<stop offset="1" stop-color="white" stop-opacity="0"/>
</radialGradient>
</defs>
</svg>
